{
    "asset" : {
        "generator" : "Khronos glTF Blender I/O v1.5.17",
        "version" : "2.0"
    },
    "scene" : 0,
    "scenes" : [
        {
            "name" : "Scene",
            "nodes" : [
                0,
                1,
                2,
                3,
                4,
                5
            ]
        }
    ],
    "nodes" : [
        {
            "mesh" : 0,
            "name" : "Cone",
            "rotation" : [
                0.3826834559440613,
                0,
                0,
                0.9238795042037964
            ],
            "scale" : [
                4,
                1,
                4
            ],
            "translation" : [
                -6,
                0,
                -2
            ]
        },
        {
            "mesh" : 1,
            "name" : "Cone.001",
            "rotation" : [
                0,
                0,
                -0.3826834559440613,
                0.9238795042037964
            ],
            "scale" : [
                1,
                1,
                2
            ],
            "translation" : [
                -3,
                2,
                -2
            ]
        },
        {
            "mesh" : 2,
            "name" : "Cone.002",
            "rotation" : [
                0.1464466154575348,
                0.8535534143447876,
                -0.3535534143447876,
                0.3535533845424652
            ],
            "scale" : [
                2.999999761581421,
                1,
                6
            ],
            "translation" : [
                0,
                4,
                1
            ]
        },
        {
            "mesh" : 3,
            "name" : "Cone.003",
            "rotation" : [
                0,
                0,
                -0.3826834559440613,
                0.9238795042037964
            ],
            "scale" : [
                1,
                10,
                1
            ],
            "translation" : [
                3,
                -6,
                -9
            ]
        },
        {
            "mesh" : 4,
            "name" : "Cone.004",
            "rotation" : [
                -0.3826834559440613,
                0,
                0,
                0.9238795042037964
            ],
            "scale" : [
                2,
                2,
                2
            ],
            "translation" : [
                6,
                -3,
                -1
            ]
        },
        {
            "mesh" : 5,
            "name" : "Cone.005",
            "rotation" : [
                0,
                0,
                -0.7071067690849304,
                0.7071068286895752
            ],
            "scale" : [
                4,
                1,
                1
            ],
            "translation" : [
                10,
                -3,
                -8
            ]
        }
    ],
    "materials" : [
        {
            "doubleSided" : true,
            "name" : "redConeMat",
            "pbrMetallicRoughness" : {
                "baseColorFactor" : [
                    0.30319806933403015,
                    0.007850877940654755,
                    0.012498377822339535,
                    1
                ],
                "metallicFactor" : 0
            }
        },
        {
            "doubleSided" : true,
            "name" : "greenConeMat",
            "pbrMetallicRoughness" : {
                "baseColorFactor" : [
                    0.0028582431841641665,
                    0.16794899106025696,
                    0.004328910261392593,
                    1
                ],
                "metallicFactor" : 0
            }
        },
        {
            "doubleSided" : true,
            "name" : "blueConeMat",
            "pbrMetallicRoughness" : {
                "baseColorFactor" : [
                    0.0031355146784335375,
                    0.003021162236109376,
                    0.35055580735206604,
                    1
                ],
                "metallicFactor" : 0
            }
        }
    ],
    "meshes" : [
        {
            "name" : "Cone",
            "primitives" : [
                {
                    "attributes" : {
                        "POSITION" : 0,
                        "NORMAL" : 1,
                        "TEXCOORD_0" : 2
                    },
                    "indices" : 3,
                    "material" : 0
                }
            ]
        },
        {
            "name" : "Cone.001",
            "primitives" : [
                {
                    "attributes" : {
                        "POSITION" : 4,
                        "NORMAL" : 5,
                        "TEXCOORD_0" : 6
                    },
                    "indices" : 3,
                    "material" : 1
                }
            ]
        },
        {
            "name" : "Cone.002",
            "primitives" : [
                {
                    "attributes" : {
                        "POSITION" : 7,
                        "NORMAL" : 8,
                        "TEXCOORD_0" : 9
                    },
                    "indices" : 3,
                    "material" : 2
                }
            ]
        },
        {
            "name" : "Cone.003",
            "primitives" : [
                {
                    "attributes" : {
                        "POSITION" : 10,
                        "NORMAL" : 11,
                        "TEXCOORD_0" : 12
                    },
                    "indices" : 3,
                    "material" : 0
                }
            ]
        },
        {
            "name" : "Cone.004",
            "primitives" : [
                {
                    "attributes" : {
                        "POSITION" : 13,
                        "NORMAL" : 14,
                        "TEXCOORD_0" : 15
                    },
                    "indices" : 3,
                    "material" : 1
                }
            ]
        },
        {
            "name" : "Cone.005",
            "primitives" : [
                {
                    "attributes" : {
                        "POSITION" : 16,
                        "NORMAL" : 17,
                        "TEXCOORD_0" : 18
                    },
                    "indices" : 3,
                    "material" : 2
                }
            ]
        }
    ],
    "accessors" : [
        {
            "bufferView" : 0,
            "componentType" : 5126,
            "count" : 128,
            "max" : [
                0.5,
                0.5,
                0.5
            ],
            "min" : [
                -0.5,
                -0.5,
                -0.5
            ],
            "type" : "VEC3"
        },
        {
            "bufferView" : 1,
            "componentType" : 5126,
            "count" : 128,
            "type" : "VEC3"
        },
        {
            "bufferView" : 2,
            "componentType" : 5126,
            "count" : 128,
            "type" : "VEC2"
        },
        {
            "bufferView" : 3,
            "componentType" : 5123,
            "count" : 186,
            "type" : "SCALAR"
        },
        {
            "bufferView" : 4,
            "componentType" : 5126,
            "count" : 128,
            "max" : [
                0.5,
                0.5,
                0.5
            ],
            "min" : [
                -0.5,
                -0.5,
                -0.5
            ],
            "type" : "VEC3"
        },
        {
            "bufferView" : 5,
            "componentType" : 5126,
            "count" : 128,
            "type" : "VEC3"
        },
        {
            "bufferView" : 6,
            "componentType" : 5126,
            "count" : 128,
            "type" : "VEC2"
        },
        {
            "bufferView" : 7,
            "componentType" : 5126,
            "count" : 128,
            "max" : [
                0.5,
                0.5,
                0.5
            ],
            "min" : [
                -0.5,
                -0.5,
                -0.5
            ],
            "type" : "VEC3"
        },
        {
            "bufferView" : 8,
            "componentType" : 5126,
            "count" : 128,
            "type" : "VEC3"
        },
        {
            "bufferView" : 9,
            "componentType" : 5126,
            "count" : 128,
            "type" : "VEC2"
        },
        {
            "bufferView" : 10,
            "componentType" : 5126,
            "count" : 128,
            "max" : [
                0.5,
                0.5,
                0.5
            ],
            "min" : [
                -0.5,
                -0.5,
                -0.5
            ],
            "type" : "VEC3"
        },
        {
            "bufferView" : 11,
            "componentType" : 5126,
            "count" : 128,
            "type" : "VEC3"
        },
        {
            "bufferView" : 12,
            "componentType" : 5126,
            "count" : 128,
            "type" : "VEC2"
        },
        {
            "bufferView" : 13,
            "componentType" : 5126,
            "count" : 128,
            "max" : [
                0.5,
                0.5,
                0.5
            ],
            "min" : [
                -0.5,
                -0.5,
                -0.5
            ],
            "type" : "VEC3"
        },
        {
            "bufferView" : 14,
            "componentType" : 5126,
            "count" : 128,
            "type" : "VEC3"
        },
        {
            "bufferView" : 15,
            "componentType" : 5126,
            "count" : 128,
            "type" : "VEC2"
        },
        {
            "bufferView" : 16,
            "componentType" : 5126,
            "count" : 128,
            "max" : [
                0.5,
                0.5,
                0.5
            ],
            "min" : [
                -0.5,
                -0.5,
                -0.5
            ],
            "type" : "VEC3"
        },
        {
            "bufferView" : 17,
            "componentType" : 5126,
            "count" : 128,
            "type" : "VEC3"
        },
        {
            "bufferView" : 18,
            "componentType" : 5126,
            "count" : 128,
            "type" : "VEC2"
        }
    ],
    "bufferViews" : [
        {
            "buffer" : 0,
            "byteLength" : 1536,
            "byteOffset" : 0
        },
        {
            "buffer" : 0,
            "byteLength" : 1536,
            "byteOffset" : 1536
        },
        {
            "buffer" : 0,
            "byteLength" : 1024,
            "byteOffset" : 3072
        },
        {
            "buffer" : 0,
            "byteLength" : 372,
            "byteOffset" : 4096
        },
        {
            "buffer" : 0,
            "byteLength" : 1536,
            "byteOffset" : 4468
        },
        {
            "buffer" : 0,
            "byteLength" : 1536,
            "byteOffset" : 6004
        },
        {
            "buffer" : 0,
            "byteLength" : 1024,
            "byteOffset" : 7540
        },
        {
            "buffer" : 0,
            "byteLength" : 1536,
            "byteOffset" : 8564
        },
        {
            "buffer" : 0,
            "byteLength" : 1536,
            "byteOffset" : 10100
        },
        {
            "buffer" : 0,
            "byteLength" : 1024,
            "byteOffset" : 11636
        },
        {
            "buffer" : 0,
            "byteLength" : 1536,
            "byteOffset" : 12660
        },
        {
            "buffer" : 0,
            "byteLength" : 1536,
            "byteOffset" : 14196
        },
        {
            "buffer" : 0,
            "byteLength" : 1024,
            "byteOffset" : 15732
        },
        {
            "buffer" : 0,
            "byteLength" : 1536,
            "byteOffset" : 16756
        },
        {
            "buffer" : 0,
            "byteLength" : 1536,
            "byteOffset" : 18292
        },
        {
            "buffer" : 0,
            "byteLength" : 1024,
            "byteOffset" : 19828
        },
        {
            "buffer" : 0,
            "byteLength" : 1536,
            "byteOffset" : 20852
        },
        {
            "buffer" : 0,
            "byteLength" : 1536,
            "byteOffset" : 22388
        },
        {
            "buffer" : 0,
            "byteLength" : 1024,
            "byteOffset" : 23924
        }
    ],
    "buffers" : [
        {
            "byteLength" : 24948,
            "uri" : "data:application/octet-stream;base64,"
        }
    ]
}
