{
    "asset" : {
        "generator" : "Khronos glTF Blender I/O v1.5.17",
        "version" : "2.0"
    },
    "scene" : 0,
    "scenes" : [
        {
            "name" : "Scene",
            "nodes" : [
                0,
                1,
                2,
                3,
                4,
                5
            ]
        }
    ],
    "nodes" : [
        {
            "mesh" : 0,
            "name" : "Sphere",
            "translation" : [
                -2,
                4,
                0
            ]
        },
        {
            "mesh" : 1,
            "name" : "Sphere.001",
            "scale" : [
                5,
                5,
                5
            ],
            "translation" : [
                1,
                -1,
                -2
            ]
        },
        {
            "mesh" : 2,
            "name" : "Sphere.002",
            "scale" : [
                3,
                3,
                3
            ],
            "translation" : [
                5,
                2,
                -6
            ]
        },
        {
            "mesh" : 3,
            "name" : "Icosphere",
            "translation" : [
                9,
                0,
                -4
            ]
        },
        {
            "mesh" : 4,
            "name" : "Icosphere.001",
            "scale" : [
                5,
                5,
                5
            ],
            "translation" : [
                12,
                9,
                -4
            ]
        },
        {
            "mesh" : 5,
            "name" : "Icosphere.002",
            "scale" : [
                10,
                10,
                10
            ],
            "translation" : [
                17,
                0,
                6
            ]
        }
    ],
    "materials" : [
        {
            "doubleSided" : true,
            "name" : "redSphereMat",
            "pbrMetallicRoughness" : {
                "baseColorFactor" : [
                    0.8000000715255737,
                    0,
                    0.002678066724911332,
                    1
                ],
                "metallicFactor" : 0
            }
        },
        {
            "doubleSided" : true,
            "name" : "greenSphereMat",
            "pbrMetallicRoughness" : {
                "baseColorFactor" : [
                    0.0019866807851940393,
                    0.8000000715255737,
                    0,
                    1
                ],
                "metallicFactor" : 0
            }
        },
        {
            "doubleSided" : true,
            "name" : "blueSphereMat",
            "pbrMetallicRoughness" : {
                "baseColorFactor" : [
                    0.0022535528987646103,
                    0,
                    0.8000000715255737,
                    1
                ],
                "metallicFactor" : 0
            }
        }
    ],
    "meshes" : [
        {
            "name" : "Sphere",
            "primitives" : [
                {
                    "attributes" : {
                        "POSITION" : 0,
                        "NORMAL" : 1,
                        "TEXCOORD_0" : 2
                    },
                    "indices" : 3,
                    "material" : 0
                }
            ]
        },
        {
            "name" : "Sphere.001",
            "primitives" : [
                {
                    "attributes" : {
                        "POSITION" : 4,
                        "NORMAL" : 5,
                        "TEXCOORD_0" : 6
                    },
                    "indices" : 3,
                    "material" : 1
                }
            ]
        },
        {
            "name" : "Sphere.002",
            "primitives" : [
                {
                    "attributes" : {
                        "POSITION" : 7,
                        "NORMAL" : 8,
                        "TEXCOORD_0" : 9
                    },
                    "indices" : 3,
                    "material" : 2
                }
            ]
        },
        {
            "name" : "Icosphere",
            "primitives" : [
                {
                    "attributes" : {
                        "POSITION" : 10,
                        "NORMAL" : 11,
                        "TEXCOORD_0" : 12
                    },
                    "indices" : 13,
                    "material" : 0
                }
            ]
        },
        {
            "name" : "Icosphere.001",
            "primitives" : [
                {
                    "attributes" : {
                        "POSITION" : 14,
                        "NORMAL" : 15,
                        "TEXCOORD_0" : 16
                    },
                    "indices" : 13,
                    "material" : 1
                }
            ]
        },
        {
            "name" : "Icosphere.002",
            "primitives" : [
                {
                    "attributes" : {
                        "POSITION" : 17,
                        "NORMAL" : 18,
                        "TEXCOORD_0" : 19
                    },
                    "indices" : 13,
                    "material" : 2
                }
            ]
        }
    ],
    "accessors" : [
        {
            "bufferView" : 0,
            "componentType" : 5126,
            "count" : 1984,
            "max" : [
                0.5000001192092896,
                0.5,
                0.5000001788139343
            ],
            "min" : [
                -0.49999991059303284,
                -0.5,
                -0.5
            ],
            "type" : "VEC3"
        },
        {
            "bufferView" : 1,
            "componentType" : 5126,
            "count" : 1984,
            "type" : "VEC3"
        },
        {
            "bufferView" : 2,
            "componentType" : 5126,
            "count" : 1984,
            "type" : "VEC2"
        },
        {
            "bufferView" : 3,
            "componentType" : 5123,
            "count" : 2880,
            "type" : "SCALAR"
        },
        {
            "bufferView" : 4,
            "componentType" : 5126,
            "count" : 1984,
            "max" : [
                0.5000001192092896,
                0.5,
                0.5000001788139343
            ],
            "min" : [
                -0.49999991059303284,
                -0.5,
                -0.5
            ],
            "type" : "VEC3"
        },
        {
            "bufferView" : 5,
            "componentType" : 5126,
            "count" : 1984,
            "type" : "VEC3"
        },
        {
            "bufferView" : 6,
            "componentType" : 5126,
            "count" : 1984,
            "type" : "VEC2"
        },
        {
            "bufferView" : 7,
            "componentType" : 5126,
            "count" : 1984,
            "max" : [
                0.5000001192092896,
                0.5,
                0.5000001788139343
            ],
            "min" : [
                -0.49999991059303284,
                -0.5,
                -0.5
            ],
            "type" : "VEC3"
        },
        {
            "bufferView" : 8,
            "componentType" : 5126,
            "count" : 1984,
            "type" : "VEC3"
        },
        {
            "bufferView" : 9,
            "componentType" : 5126,
            "count" : 1984,
            "type" : "VEC2"
        },
        {
            "bufferView" : 10,
            "componentType" : 5126,
            "count" : 240,
            "max" : [
                0.47552892565727234,
                0.5,
                0.4999999701976776
            ],
            "min" : [
                -0.47552892565727234,
                -0.5,
                -0.4999999701976776
            ],
            "type" : "VEC3"
        },
        {
            "bufferView" : 11,
            "componentType" : 5126,
            "count" : 240,
            "type" : "VEC3"
        },
        {
            "bufferView" : 12,
            "componentType" : 5126,
            "count" : 240,
            "type" : "VEC2"
        },
        {
            "bufferView" : 13,
            "componentType" : 5123,
            "count" : 240,
            "type" : "SCALAR"
        },
        {
            "bufferView" : 14,
            "componentType" : 5126,
            "count" : 240,
            "max" : [
                0.47552892565727234,
                0.5,
                0.4999999701976776
            ],
            "min" : [
                -0.47552892565727234,
                -0.5,
                -0.4999999701976776
            ],
            "type" : "VEC3"
        },
        {
            "bufferView" : 15,
            "componentType" : 5126,
            "count" : 240,
            "type" : "VEC3"
        },
        {
            "bufferView" : 16,
            "componentType" : 5126,
            "count" : 240,
            "type" : "VEC2"
        },
        {
            "bufferView" : 17,
            "componentType" : 5126,
            "count" : 240,
            "max" : [
                0.47552892565727234,
                0.5,
                0.4999999701976776
            ],
            "min" : [
                -0.47552892565727234,
                -0.5,
                -0.4999999701976776
            ],
            "type" : "VEC3"
        },
        {
            "bufferView" : 18,
            "componentType" : 5126,
            "count" : 240,
            "type" : "VEC3"
        },
        {
            "bufferView" : 19,
            "componentType" : 5126,
            "count" : 240,
            "type" : "VEC2"
        }
    ],
    "bufferViews" : [
        {
            "buffer" : 0,
            "byteLength" : 23808,
            "byteOffset" : 0
        },
        {
            "buffer" : 0,
            "byteLength" : 23808,
            "byteOffset" : 23808
        },
        {
            "buffer" : 0,
            "byteLength" : 15872,
            "byteOffset" : 47616
        },
        {
            "buffer" : 0,
            "byteLength" : 5760,
            "byteOffset" : 63488
        },
        {
            "buffer" : 0,
            "byteLength" : 23808,
            "byteOffset" : 69248
        },
        {
            "buffer" : 0,
            "byteLength" : 23808,
            "byteOffset" : 93056
        },
        {
            "buffer" : 0,
            "byteLength" : 15872,
            "byteOffset" : 116864
        },
        {
            "buffer" : 0,
            "byteLength" : 23808,
            "byteOffset" : 132736
        },
        {
            "buffer" : 0,
            "byteLength" : 23808,
            "byteOffset" : 156544
        },
        {
            "buffer" : 0,
            "byteLength" : 15872,
            "byteOffset" : 180352
        },
        {
            "buffer" : 0,
            "byteLength" : 2880,
            "byteOffset" : 196224
        },
        {
            "buffer" : 0,
            "byteLength" : 2880,
            "byteOffset" : 199104
        },
        {
            "buffer" : 0,
            "byteLength" : 1920,
            "byteOffset" : 201984
        },
        {
            "buffer" : 0,
            "byteLength" : 480,
            "byteOffset" : 203904
        },
        {
            "buffer" : 0,
            "byteLength" : 2880,
            "byteOffset" : 204384
        },
        {
            "buffer" : 0,
            "byteLength" : 2880,
            "byteOffset" : 207264
        },
        {
            "buffer" : 0,
            "byteLength" : 1920,
            "byteOffset" : 210144
        },
        {
            "buffer" : 0,
            "byteLength" : 2880,
            "byteOffset" : 212064
        },
        {
            "buffer" : 0,
            "byteLength" : 2880,
            "byteOffset" : 214944
        },
        {
            "buffer" : 0,
            "byteLength" : 1920,
            "byteOffset" : 217824
        }
    ],
    "buffers" : [
        {
            "byteLength" : 219744,
            "uri" : "data:application/octet-stream;base64,"
        }
    ]
}
