{
    "asset" : {
        "generator" : "Khronos glTF Blender I/O v1.5.17",
        "version" : "2.0"
    },
    "scene" : 0,
    "scenes" : [
        {
            "name" : "Scene",
            "nodes" : [
                0,
                1,
                2,
                3,
                4,
                5
            ]
        }
    ],
    "nodes" : [
        {
            "mesh" : 0,
            "name" : "Torus",
            "rotation" : [
                0.3826834559440613,
                0,
                0,
                0.9238795042037964
            ],
            "scale" : [
                1,
                0.20000004768371582,
                1
            ],
            "translation" : [
                -5,
                0,
                0
            ]
        },
        {
            "mesh" : 1,
            "name" : "Torus.001",
            "rotation" : [
                0.6532815098762512,
                0.27059805393218994,
                -0.27059805393218994,
                0.6532814502716064
            ],
            "scale" : [
                2,
                1,
                4
            ],
            "translation" : [
                -3,
                0,
                -4
            ]
        },
        {
            "mesh" : 2,
            "name" : "Torus.002",
            "rotation" : [
                0.7071068286895752,
                0,
                0,
                0.7071068286895752
            ],
            "scale" : [
                1,
                5,
                1
            ],
            "translation" : [
                0,
                5,
                2
            ]
        },
        {
            "mesh" : 3,
            "name" : "Torus.003",
            "rotation" : [
                -0.14644663035869598,
                0.3535534143447876,
                -0.3535534143447876,
                0.8535534739494324
            ],
            "translation" : [
                2,
                0,
                2
            ]
        },
        {
            "mesh" : 4,
            "name" : "Torus.004",
            "scale" : [
                4,
                2,
                4
            ],
            "translation" : [
                4,
                0,
                -8
            ]
        },
        {
            "mesh" : 5,
            "name" : "Torus.005",
            "rotation" : [
                0,
                0,
                -0.7071067690849304,
                0.7071068286895752
            ],
            "scale" : [
                1,
                0.3999999761581421,
                5
            ],
            "translation" : [
                7,
                0,
                -2
            ]
        }
    ],
    "materials" : [
        {
            "doubleSided" : true,
            "name" : "redTorusMat",
            "pbrMetallicRoughness" : {
                "baseColorFactor" : [
                    0.8000000715255737,
                    0.08046519756317139,
                    0.08046519756317139,
                    1
                ],
                "metallicFactor" : 0,
                "roughnessFactor" : 0.9926470518112183
            }
        },
        {
            "doubleSided" : true,
            "name" : "greenTorusMat",
            "pbrMetallicRoughness" : {
                "baseColorFactor" : [
                    0.12341322749853134,
                    0.8000000715255737,
                    0.1134803295135498,
                    1
                ],
                "metallicFactor" : 0
            }
        },
        {
            "doubleSided" : true,
            "name" : "blueTorusMat",
            "pbrMetallicRoughness" : {
                "baseColorFactor" : [
                    0.021700747311115265,
                    0.19338446855545044,
                    0.8000000715255737,
                    1
                ],
                "metallicFactor" : 0
            }
        }
    ],
    "meshes" : [
        {
            "name" : "Torus",
            "primitives" : [
                {
                    "attributes" : {
                        "POSITION" : 0,
                        "NORMAL" : 1,
                        "TEXCOORD_0" : 2
                    },
                    "indices" : 3,
                    "material" : 0
                }
            ]
        },
        {
            "name" : "Torus.001",
            "primitives" : [
                {
                    "attributes" : {
                        "POSITION" : 4,
                        "NORMAL" : 5,
                        "TEXCOORD_0" : 6
                    },
                    "indices" : 3,
                    "material" : 1
                }
            ]
        },
        {
            "name" : "Torus.002",
            "primitives" : [
                {
                    "attributes" : {
                        "POSITION" : 7,
                        "NORMAL" : 8,
                        "TEXCOORD_0" : 9
                    },
                    "indices" : 3,
                    "material" : 2
                }
            ]
        },
        {
            "name" : "Torus.003",
            "primitives" : [
                {
                    "attributes" : {
                        "POSITION" : 10,
                        "NORMAL" : 11,
                        "TEXCOORD_0" : 12
                    },
                    "indices" : 3,
                    "material" : 0
                }
            ]
        },
        {
            "name" : "Torus.004",
            "primitives" : [
                {
                    "attributes" : {
                        "POSITION" : 13,
                        "NORMAL" : 14,
                        "TEXCOORD_0" : 15
                    },
                    "indices" : 3,
                    "material" : 1
                }
            ]
        },
        {
            "name" : "Torus.005",
            "primitives" : [
                {
                    "attributes" : {
                        "POSITION" : 16,
                        "NORMAL" : 17,
                        "TEXCOORD_0" : 18
                    },
                    "indices" : 3,
                    "material" : 2
                }
            ]
        }
    ],
    "accessors" : [
        {
            "bufferView" : 0,
            "componentType" : 5126,
            "count" : 2304,
            "max" : [
                0.5,
                0.5,
                0.5
            ],
            "min" : [
                -0.5,
                -0.5,
                -0.5
            ],
            "type" : "VEC3"
        },
        {
            "bufferView" : 1,
            "componentType" : 5126,
            "count" : 2304,
            "type" : "VEC3"
        },
        {
            "bufferView" : 2,
            "componentType" : 5126,
            "count" : 2304,
            "type" : "VEC2"
        },
        {
            "bufferView" : 3,
            "componentType" : 5123,
            "count" : 3456,
            "type" : "SCALAR"
        },
        {
            "bufferView" : 4,
            "componentType" : 5126,
            "count" : 2304,
            "max" : [
                0.5,
                0.5,
                0.5
            ],
            "min" : [
                -0.5,
                -0.5,
                -0.5
            ],
            "type" : "VEC3"
        },
        {
            "bufferView" : 5,
            "componentType" : 5126,
            "count" : 2304,
            "type" : "VEC3"
        },
        {
            "bufferView" : 6,
            "componentType" : 5126,
            "count" : 2304,
            "type" : "VEC2"
        },
        {
            "bufferView" : 7,
            "componentType" : 5126,
            "count" : 2304,
            "max" : [
                0.5,
                0.5,
                0.5
            ],
            "min" : [
                -0.5,
                -0.5,
                -0.5
            ],
            "type" : "VEC3"
        },
        {
            "bufferView" : 8,
            "componentType" : 5126,
            "count" : 2304,
            "type" : "VEC3"
        },
        {
            "bufferView" : 9,
            "componentType" : 5126,
            "count" : 2304,
            "type" : "VEC2"
        },
        {
            "bufferView" : 10,
            "componentType" : 5126,
            "count" : 2304,
            "max" : [
                0.5,
                0.5,
                0.5
            ],
            "min" : [
                -0.5,
                -0.5,
                -0.5
            ],
            "type" : "VEC3"
        },
        {
            "bufferView" : 11,
            "componentType" : 5126,
            "count" : 2304,
            "type" : "VEC3"
        },
        {
            "bufferView" : 12,
            "componentType" : 5126,
            "count" : 2304,
            "type" : "VEC2"
        },
        {
            "bufferView" : 13,
            "componentType" : 5126,
            "count" : 2304,
            "max" : [
                0.5,
                0.5,
                0.5
            ],
            "min" : [
                -0.5,
                -0.5,
                -0.5
            ],
            "type" : "VEC3"
        },
        {
            "bufferView" : 14,
            "componentType" : 5126,
            "count" : 2304,
            "type" : "VEC3"
        },
        {
            "bufferView" : 15,
            "componentType" : 5126,
            "count" : 2304,
            "type" : "VEC2"
        },
        {
            "bufferView" : 16,
            "componentType" : 5126,
            "count" : 2304,
            "max" : [
                0.5,
                0.5,
                0.5
            ],
            "min" : [
                -0.5,
                -0.5,
                -0.5
            ],
            "type" : "VEC3"
        },
        {
            "bufferView" : 17,
            "componentType" : 5126,
            "count" : 2304,
            "type" : "VEC3"
        },
        {
            "bufferView" : 18,
            "componentType" : 5126,
            "count" : 2304,
            "type" : "VEC2"
        }
    ],
    "bufferViews" : [
        {
            "buffer" : 0,
            "byteLength" : 27648,
            "byteOffset" : 0
        },
        {
            "buffer" : 0,
            "byteLength" : 27648,
            "byteOffset" : 27648
        },
        {
            "buffer" : 0,
            "byteLength" : 18432,
            "byteOffset" : 55296
        },
        {
            "buffer" : 0,
            "byteLength" : 6912,
            "byteOffset" : 73728
        },
        {
            "buffer" : 0,
            "byteLength" : 27648,
            "byteOffset" : 80640
        },
        {
            "buffer" : 0,
            "byteLength" : 27648,
            "byteOffset" : 108288
        },
        {
            "buffer" : 0,
            "byteLength" : 18432,
            "byteOffset" : 135936
        },
        {
            "buffer" : 0,
            "byteLength" : 27648,
            "byteOffset" : 154368
        },
        {
            "buffer" : 0,
            "byteLength" : 27648,
            "byteOffset" : 182016
        },
        {
            "buffer" : 0,
            "byteLength" : 18432,
            "byteOffset" : 209664
        },
        {
            "buffer" : 0,
            "byteLength" : 27648,
            "byteOffset" : 228096
        },
        {
            "buffer" : 0,
            "byteLength" : 27648,
            "byteOffset" : 255744
        },
        {
            "buffer" : 0,
            "byteLength" : 18432,
            "byteOffset" : 283392
        },
        {
            "buffer" : 0,
            "byteLength" : 27648,
            "byteOffset" : 301824
        },
        {
            "buffer" : 0,
            "byteLength" : 27648,
            "byteOffset" : 329472
        },
        {
            "buffer" : 0,
            "byteLength" : 18432,
            "byteOffset" : 357120
        },
        {
            "buffer" : 0,
            "byteLength" : 27648,
            "byteOffset" : 375552
        },
        {
            "buffer" : 0,
            "byteLength" : 27648,
            "byteOffset" : 403200
        },
        {
            "buffer" : 0,
            "byteLength" : 18432,
            "byteOffset" : 430848
        }
    ],
    "buffers" : [
        {
            "byteLength" : 449280,
            "uri" : "data:application/octet-stream;base64,"
        }
    ]
}
